<svg xmlns="http://www.w3.org/2000/svg" xmlns:xlink="http://www.w3.org/1999/xlink" zoomAndPan="magnify" preserveAspectRatio="xMidYMid meet" version="1.0" viewBox="37.5 98 285.33 147"><defs><g/><clipPath id="38e30c6605"><path d="M 37.5 98 L 166 98 L 166 245 L 37.5 245 Z M 37.5 98 " clip-rule="nonzero"/></clipPath></defs><g clip-path="url(#38e30c6605)"><path fill="#ffffff" d="M 162.59375 164.367188 L 50.429688 99.523438 C 44.46875 95.980469 37.535156 100.847656 37.523438 106.203125 L 37.5 170.757812 C 37.5 192.050781 37.511719 213.347656 37.511719 234.652344 L 37.535156 236.523438 C 38.289062 242.597656 45.097656 245.933594 50.347656 242.902344 L 161.675781 178.589844 C 166.902344 175.578125 167.4375 168.0625 162.59375 164.367188 Z M 157.851562 166.15625 L 77.742188 218.203125 L 151.417969 163.242188 C 153.578125 164.160156 155.726562 165.136719 157.851562 166.15625 Z M 77.660156 185.894531 L 87.023438 194.828125 L 85.839844 197.804688 Z M 84.15625 201.53125 C 83.339844 203.203125 82.46875 204.84375 81.550781 206.433594 L 69.179688 179.726562 Z M 66.277344 168.75 C 75.058594 164.289062 84.175781 160.269531 93.703125 157.734375 C 93.179688 167.574219 92.101562 177.472656 89.519531 187 C 81.273438 181.632812 73.234375 175.742188 66.277344 168.75 Z M 129.683594 156.410156 L 136.792969 158.085938 L 90.472656 198.894531 Z M 108.96875 155.132812 C 110.828125 154.992188 112.675781 154.9375 114.523438 154.9375 L 97.582031 178.996094 Z M 98.675781 168.574219 L 101.730469 156.003906 L 104.902344 155.539062 Z M 118.714844 155.050781 C 120.992188 155.179688 123.269531 155.402344 125.546875 155.726562 L 94.773438 189.078125 Z M 42.183594 116.03125 C 41.890625 113.695312 41.671875 111.347656 41.496094 109 L 126.613281 152.355469 Z M 114.730469 151.054688 L 44.0625 127.242188 C 43.550781 124.871094 43.109375 122.488281 42.738281 120.085938 Z M 103.53125 150.972656 L 47.140625 138.265625 L 45.027344 131.273438 Z M 92.878906 152.160156 L 51.441406 148.441406 C 50.40625 146.410156 49.464844 144.316406 48.605469 142.179688 Z M 82.75 154.761719 L 56.390625 156.828125 C 55.34375 155.285156 54.367188 153.726562 53.4375 152.125 Z M 73.175781 159.035156 L 60.757812 162.671875 L 58.769531 160.164062 Z M 79.355469 210.011719 C 78.101562 211.929688 76.777344 213.789062 75.359375 215.601562 L 61.871094 172.269531 Z M 147.628906 161.695312 L 84.804688 208.558594 L 140.753906 159.269531 C 143.066406 160 145.351562 160.8125 147.628906 161.695312 Z M 48.269531 102.332031 L 139.136719 154.796875 L 41.34375 104.992188 C 42.402344 102.332031 45.679688 101.113281 48.269531 102.332031 Z M 41.019531 236.140625 L 41.019531 130.875 L 46.78125 240.496094 C 44.085938 240.902344 41.378906 238.835938 41.019531 236.140625 Z M 50.175781 238.335938 L 45.15625 142.945312 L 55.925781 234.234375 C 54.03125 235.652344 52.113281 237.011719 50.175781 238.335938 Z M 59.15625 231.726562 L 49.976562 153.890625 L 64.683594 226.996094 C 62.894531 228.625 61.046875 230.203125 59.15625 231.726562 Z M 55.507812 163.636719 L 72.6875 218.828125 L 67.679688 224.164062 Z M 160.164062 175.394531 L 69.367188 227.820312 L 161.386719 168.039062 C 163.164062 170.28125 162.582031 173.8125 160.164062 175.394531 Z M 160.164062 175.394531 " fill-opacity="1" fill-rule="nonzero"/></g><g fill="#ffffff" fill-opacity="1"><g transform="translate(175.472762, 191.955866)"><g><path d="M 41.15625 -28.5625 L 33.28125 -28.5625 C 33.0625 -29.851562 32.648438 -31 32.046875 -32 C 31.441406 -33.007812 30.6875 -33.863281 29.78125 -34.5625 C 28.882812 -35.269531 27.863281 -35.800781 26.71875 -36.15625 C 25.582031 -36.507812 24.351562 -36.6875 23.03125 -36.6875 C 20.6875 -36.6875 18.609375 -36.097656 16.796875 -34.921875 C 14.984375 -33.753906 13.566406 -32.046875 12.546875 -29.796875 C 11.523438 -27.546875 11.015625 -24.800781 11.015625 -21.5625 C 11.015625 -18.257812 11.53125 -15.484375 12.5625 -13.234375 C 13.59375 -10.984375 15.007812 -9.285156 16.8125 -8.140625 C 18.613281 -6.992188 20.679688 -6.421875 23.015625 -6.421875 C 24.304688 -6.421875 25.515625 -6.59375 26.640625 -6.9375 C 27.765625 -7.28125 28.78125 -7.785156 29.6875 -8.453125 C 30.59375 -9.128906 31.359375 -9.957031 31.984375 -10.9375 C 32.609375 -11.925781 33.039062 -13.050781 33.28125 -14.3125 L 41.15625 -14.265625 C 40.863281 -12.222656 40.226562 -10.300781 39.25 -8.5 C 38.269531 -6.707031 36.992188 -5.125 35.421875 -3.75 C 33.859375 -2.382812 32.019531 -1.316406 29.90625 -0.546875 C 27.800781 0.210938 25.46875 0.59375 22.90625 0.59375 C 19.113281 0.59375 15.726562 -0.28125 12.75 -2.03125 C 9.78125 -3.789062 7.4375 -6.328125 5.71875 -9.640625 C 4.007812 -12.953125 3.15625 -16.925781 3.15625 -21.5625 C 3.15625 -26.207031 4.019531 -30.179688 5.75 -33.484375 C 7.476562 -36.785156 9.828125 -39.3125 12.796875 -41.0625 C 15.773438 -42.820312 19.144531 -43.703125 22.90625 -43.703125 C 25.300781 -43.703125 27.53125 -43.363281 29.59375 -42.6875 C 31.65625 -42.019531 33.492188 -41.035156 35.109375 -39.734375 C 36.722656 -38.429688 38.050781 -36.84375 39.09375 -34.96875 C 40.144531 -33.101562 40.832031 -30.96875 41.15625 -28.5625 Z M 41.15625 -28.5625 "/></g></g></g><g fill="#ffffff" fill-opacity="1"><g transform="translate(219.548786, 191.955866)"><g><path d="M 11.53125 -43.109375 L 11.53125 0 L 3.921875 0 L 3.921875 -43.109375 Z M 11.53125 -43.109375 "/></g></g></g><g fill="#ffffff" fill-opacity="1"><g transform="translate(234.99855, 191.955866)"><g><path d="M 3.921875 0 L 3.921875 -32.328125 L 11.53125 -32.328125 L 11.53125 0 Z M 7.75 -36.921875 C 6.539062 -36.921875 5.5 -37.320312 4.625 -38.125 C 3.757812 -38.9375 3.328125 -39.910156 3.328125 -41.046875 C 3.328125 -42.203125 3.757812 -43.179688 4.625 -43.984375 C 5.5 -44.796875 6.539062 -45.203125 7.75 -45.203125 C 8.96875 -45.203125 10.007812 -44.796875 10.875 -43.984375 C 11.738281 -43.179688 12.171875 -42.203125 12.171875 -41.046875 C 12.171875 -39.910156 11.738281 -38.9375 10.875 -38.125 C 10.007812 -37.320312 8.96875 -36.921875 7.75 -36.921875 Z M 7.75 -36.921875 "/></g></g></g><g fill="#ffffff" fill-opacity="1"><g transform="translate(250.448313, 191.955866)"><g><path d="M 3.921875 12.125 L 3.921875 -32.328125 L 11.40625 -32.328125 L 11.40625 -26.984375 L 11.859375 -26.984375 C 12.242188 -27.773438 12.796875 -28.613281 13.515625 -29.5 C 14.234375 -30.394531 15.203125 -31.160156 16.421875 -31.796875 C 17.640625 -32.429688 19.195312 -32.75 21.09375 -32.75 C 23.59375 -32.75 25.847656 -32.113281 27.859375 -30.84375 C 29.867188 -29.582031 31.46875 -27.710938 32.65625 -25.234375 C 33.84375 -22.753906 34.4375 -19.71875 34.4375 -16.125 C 34.4375 -12.570312 33.851562 -9.550781 32.6875 -7.0625 C 31.53125 -4.582031 29.945312 -2.691406 27.9375 -1.390625 C 25.925781 -0.0859375 23.648438 0.5625 21.109375 0.5625 C 19.265625 0.5625 17.726562 0.253906 16.5 -0.359375 C 15.28125 -0.972656 14.300781 -1.71875 13.5625 -2.59375 C 12.832031 -3.476562 12.265625 -4.3125 11.859375 -5.09375 L 11.53125 -5.09375 L 11.53125 12.125 Z M 11.390625 -16.171875 C 11.390625 -14.078125 11.6875 -12.242188 12.28125 -10.671875 C 12.875 -9.097656 13.734375 -7.875 14.859375 -7 C 15.992188 -6.125 17.367188 -5.6875 18.984375 -5.6875 C 20.671875 -5.6875 22.082031 -6.140625 23.21875 -7.046875 C 24.351562 -7.953125 25.210938 -9.191406 25.796875 -10.765625 C 26.378906 -12.347656 26.671875 -14.148438 26.671875 -16.171875 C 26.671875 -18.171875 26.382812 -19.945312 25.8125 -21.5 C 25.238281 -23.0625 24.378906 -24.285156 23.234375 -25.171875 C 22.097656 -26.054688 20.679688 -26.5 18.984375 -26.5 C 17.359375 -26.5 15.976562 -26.070312 14.84375 -25.21875 C 13.707031 -24.363281 12.847656 -23.160156 12.265625 -21.609375 C 11.679688 -20.066406 11.390625 -18.253906 11.390625 -16.171875 Z M 11.390625 -16.171875 "/></g></g></g><g fill="#ffffff" fill-opacity="1"><g transform="translate(287.473015, 191.955866)"><g><path d="M 3.453125 0 L 3.453125 -4.859375 L 25.5625 -36.5625 L 3.328125 -36.5625 L 3.328125 -43.109375 L 35.234375 -43.109375 L 35.234375 -38.25 L 13.15625 -6.546875 L 35.359375 -6.546875 L 35.359375 0 Z M 3.453125 0 "/></g></g></g></svg>